<?xml version="1.0" encoding="UTF-8"?>
<!DOCTYPE svg PUBLIC "-//W3C//DTD SVG 1.1//EN" "http://www.w3.org/Graphics/SVG/1.1/DTD/svg11.dtd">
<svg xmlns="http://www.w3.org/2000/svg" version="1.1" width="520px" height="520px" style="shape-rendering:geometricPrecision; text-rendering:geometricPrecision; image-rendering:optimizeQuality; fill-rule:evenodd; clip-rule:evenodd" xmlns:xlink="http://www.w3.org/1999/xlink">
<g><path style="opacity:1" fill="#247ab7" d="M 196.5,195.5 C 176.218,217.117 155.551,238.45 134.5,259.5C 155.052,280.387 175.718,301.387 196.5,322.5C 175.854,343.812 154.854,364.812 133.5,385.5C 91.5113,343.801 49.8446,301.634 8.5,259C 50.0007,216.666 91.6674,174.499 133.5,132.5C 154.854,153.188 175.854,174.188 196.5,195.5 Z"/></g>
<g><path style="opacity:1" fill="#225698" d="M 322.5,194.5 C 302.065,216.436 281.065,237.936 259.5,259C 280.258,280.593 301.258,302.093 322.5,323.5C 301.521,344.146 280.521,364.812 259.5,385.5C 237.875,364.542 216.875,343.542 196.5,322.5C 175.718,301.387 155.052,280.387 134.5,259.5C 155.551,238.45 176.218,217.117 196.5,195.5C 217.812,174.854 238.812,153.854 259.5,132.5C 280.521,153.188 301.521,173.854 322.5,194.5 Z"/></g>
<g><path style="opacity:1" fill="#47b2ba" d="M 475.5,223.5 C 486.833,235.833 498.167,248.167 509.5,260.5C 468.5,302.167 427.167,343.5 385.5,384.5C 378.779,377.775 371.779,371.442 364.5,365.5C 364.5,365.167 364.5,364.833 364.5,364.5C 361.833,361.167 358.833,358.167 355.5,355.5C 354.761,355.631 354.094,355.464 353.5,355C 343.045,344.564 332.712,334.064 322.5,323.5C 301.258,302.093 280.258,280.593 259.5,259C 281.065,237.936 302.065,216.436 322.5,194.5C 343.479,174.188 364.146,153.521 384.5,132.5C 415.188,162.521 445.521,192.854 475.5,223.5 Z"/></g>
<g><path style="opacity:0.91" fill="#4a95a8" d="M 475.5,223.5 C 487.132,234.631 498.632,245.965 510,257.5C 510.74,258.749 510.573,259.749 509.5,260.5C 498.167,248.167 486.833,235.833 475.5,223.5 Z"/></g>
<g><path style="opacity:0.004" fill="#4a92a6" d="M 355.5,355.5 C 358.833,358.167 361.833,361.167 364.5,364.5C 360.5,362.5 357.5,359.5 355.5,355.5 Z"/></g>
<g><path style="opacity:0.765" fill="#4a93a7" d="M 364.5,365.5 C 371.779,371.442 378.779,377.775 385.5,384.5C 385.103,385.525 384.437,385.692 383.5,385C 376.964,378.631 370.631,372.131 364.5,365.5 Z"/></g>
</svg>
